# xmcd CD database file
#
# Track frame offsets:
#	150
#	19800
#	40650
#	57675
#	75675
#	90150
#	113474
#	131099
#	147149
#	163274
#	179999
#	199274
#	214049
#	225974
#	237374
#	249374
#	271649
#	287324
#	311024
#
# Disc length: 4676 seconds
#
# Revision: 7
# Processed by: cddbd v1.5.2PL0 Copyright (c) Steve Scherf et al.
# Submitted via: CDex 1.70beta3
#
DISCID=01124213
DTITLE=Various Artist - EXIT TUNES PRESENTS Vocalonation
DYEAR=2011
DGENRE=Vocal
TTITLE0=halyosy feat. 繝ｻ繧ｹ繝ｻ繧ｹ繝ｻ繧ｹ繝ｻ繧ｹ繝ｻ繧ｹ繝ｻ繧ｹ繝ｻ繧ｹ繝ｻ繧ｹ - Fire笳薩lower 2011
TTITLE1=yanagi feat. KAITO - 蜊・ｹｴ縺ｮ迢ｬ螂乗ｭ・(refine)
TTITLE2=daniwellP feat. 繝ｻ繧ｹ繝ｻ繧ｹ繝ｻ繧ｹ繝ｻ繧ｹ繝ｻ繧ｹ~繝ｻ繧ｹN - Nyanyanyanyanyanyanya!
TTITLE3=繝ｻ繧ｹ繝ｻ繧ｹ繝ｻ繧ｹ繝ｻ繧ｹ繝ｻ繧ｹ繝帙ｑ繧ｽ繧ｹP feat. 繝ｻ繧ｹ繝ｻ繧ｹ繝ｻ繧ｹ繝ｻ繧ｹ繝ｻ繧ｹ~繝ｻ繧ｹN - 縺ｩ縺・＞縺・％縺ｨ縺ｪ縺ｮ!?
TTITLE4=繝ｻ繧ｹs繝ｻ繧ｹm繝ｻ繧ｹL繝ｻ繧ｹIP feat. 繝ｻ繧ｹ繝ｻ繧ｹ繝ｻ繧ｹ繝ｻ繧ｹ繝ｻ繧ｹ~繝ｻ繧ｹN - 閻舌ｌ螟夜％縺ｨ繝√Ι繧ｳ繝ｬ繧舌ヨ
TTITLE5=繝ｻ繧ｹ繝ｻ繧ｹ繝ｻ繧ｹ[繝ｻ繧ｹ繝ｻ繧ｹ繝ｻ繧ｹ繝ｻ繧ｹ繝ｻ繧ｹi繝ｻ繧ｹ繝ｻ繧ｹ繝ｻ繧ｹ繝ｻ繧ｹ繝ｻ繧ｹ_繝ｻ繧ｹt繝ｻ繧ｹ繝ｻ繧ｹ繝ｻ繧ｹ繝ｻ繧ｹ繝ｻ繧ｹI繝ｻ繧ｹ|
TTITLE5=繝ｻ繧ｹ`繝ｻ繧ｹ繝ｻ繧ｹ繝ｻ繧ｹj繝ｻ繧ｹe繝ｻ繧ｹB繝ｻ繧ｹI繝ｻ繧ｹj feat. 繝ｻ繧ｹ繝ｻ繧ｹ繝ｻ繧ｹ繝ｻ繧ｹ繝ｻ繧ｹ繝ｻ繧ｹ繝ｻ繧ｹ繝ｻ繧ｹ繝ｻ繧ｹE繝ｻ繧ｹ繝ｻ繧ｹ繝
TTITLE5=ｻ繧ｹ繝ｻ繧ｹ - 繝ｪ繝｢繧ｳ繝ｳ
TTITLE6=EasyPop(BETTI) feat. 繝ｻ繧ｹ繝ｻ繧ｹ繝ｻ繧ｹ繝ｻ繧ｹ繝ｻ繧ｹ繝ｻ繧ｹ繝ｻ繧ｹJ繝ｻ繧ｹEGUMI - 繝上ャ繝斐・繧ｷ繝ｳ繧ｻ繧ｵ繧､繧ｶ
TTITLE7=SCL Project(natsuP) feat. VanaN'Ice - LOVELESSﾃ療療・TTITLE8=E.L.V.N feat. MEIKO - 螢翫そ螢翫そ
TTITLE8=
TTITLE9=40mP feat. 繝ｻ繧ｹ繝ｻ繧ｹ繝ｻ繧ｹ繝ｻ繧ｹ繝ｻ繧ｹ~繝ｻ繧ｹN - 螯・Φ繧ｹ繧ｱ繝・メ
TTITLE10=繝ｻ繧ｹn繝ｻ繧ｹ` feat. 繝ｻ繧ｹ繝ｻ繧ｹ繝ｻ繧ｹ繝ｻ繧ｹ繝ｻ繧ｹ~繝ｻ繧ｹN - 繝ｪ繝ｳ繝・TTITLE11=繝ｻ繧ｹ繝ｻ繧ｹ繝ｻ繧ｹ繝弱ｅ縺・ feat. 繝ｻ繧ｹ繝ｻ繧ｹ繝ｻ繧ｹ繝ｻ繧ｹ
TTITLE10=繝ｻ繧ｹ~繝ｻ繧ｹN - 逾樊峇
TTITLE11=
TTITLE12=繝ｻ繧ｹ濶ｪ繧ｽ繝ｻ繧ｹ繝ｻ繧ｹP feat. 繝ｻ繧ｹ繝ｻ繧ｹ繝ｻ繧ｹ繝ｻ繧ｹ繝ｻ繧ｹ繝ｻ繧ｹ繝ｻ繧ｹJ - Blackjack
TTITLE13=YM feat. GUMI - 繝上Φ繧ｳ繧ｦ繧ｻ繧､繝｡繧､
TTITLE14=繝ｻ繧ｹ}繝ｻ繧ｹ`繝ｻ繧ｹQ繝ｻ繧ｹ繝ｻ繧ｹ繝ｻ繧ｹ[繝ｻ繧ｹ^ feat. 繝ｻ繧ｹ_繝ｻ繧ｹ繝溘ｑ繧ｽ繧ｹ繝ｻ繧ｹ繝ｻ繧ｹ繝ｻ繧ｹ繝ｻ繧ｹ - 阯崎牡縺ｮ陜ｶ
TTITLE15=繝ｻ繧ｹ繝ｻ繧ｹ繝ｻ繧ｹC繝ｻ繧ｹuP feat. 繝ｻ繧ｹ繝ｻ繧ｹ繝ｻ繧ｹ繝ｻ繧ｹ繝ｻ繧ｹ繝ｻ繧ｹ繝ｻ繧ｹ繝ｻ繧ｹ - 繝ｬ繝ｳ繝ｩ繧ｯ繝槭ム繝ｼ?
TTITLE16=繝ｻ繧ｹ繝ｻ繧ｹ繝ｻ繧ｹ繝ｻ繧ｹ繝ｻ繧ｹ繝ｻ繧ｹP feat. 繝ｻ繧ｹ繝ｻ繧ｹ繝ｻ繧ｹ繝ｻ繧ｹ繝ｻ繧ｹ~繝ｻ繧ｹN - 繝ｪ繧ｹ繧ｭ繝ｼ繧ｲ繝ｼ繝
TTITLE17=cosMo繝ｻ繧ｹ繝ｻ繧ｹ繝ｻ繧ｹ\\\\\\\\繝ｻ繧ｹ繝ｻ繧ｹP feat. 繝ｻ繧ｹ繝ｻ繧ｹ繝ｻ繧ｹ繝ｻ繧ｹ繝ｻ繧ｹ~繝ｻ繧ｹN - 菫ｮ驕灘ｰ大･ｳ縺ｨ蛛ｶ蜒丞ｰ大･ｳ
TTITLE18=GYARI繝ｻ繧ｹi繝ｻ繧ｹR繝ｻ繧ｹR繝ｻ繧ｹA繝ｻ繧ｹV繝ｻ繧ｹK繝ｻ繧ｹ繝ｻ繧ｹ繝ｻ繧ｹb繝ｻ繧ｹgP繝ｻ繧ｹj feat. Vocalonation Band - 繝懊・繧ｫ繝ｭ繧､繝峨◆縺｡縺後・繧ｫ繝ｭ繝阪
TTITLE18=う繧ｷ繝ｧ繝ｳ蜿朱鹸譖ｲ繧偵そ繝・す繝ｧ繝ｳ縺励◆繧医≧縺ｧ縺・EXTD=YEAR: 2011
EXTD=E18=う繧ｷ繝ｧ繝ｳ蜿朱鹸譖ｲ繧偵そ繝・す繝ｧ繝ｳ縺励◆繧医≧縺ｧ縺・EXTD=YEAR: 2011
EXTT0=
EXTT1=
EXTT2=
EXTT3=
EXTT4=
EXTT5=
EXTT6=
EXTT7=
EXTT8=
EXTT9=
EXTT10=
EXTT11=
EXTT12=
EXTT13=
EXTT14=
EXTT15=
EXTT16=
EXTT17=
EXTT18=
PLAYORDER=
